<?xml version="1.0" standalone="no"?><!DOCTYPE svg PUBLIC "-//W3C//DTD SVG 1.1//EN" "http://www.w3.org/Graphics/SVG/1.1/DTD/svg11.dtd"><svg t="1719297740599" class="icon" viewBox="0 0 1024 1024" version="1.1" xmlns="http://www.w3.org/2000/svg" p-id="22915" xmlns:xlink="http://www.w3.org/1999/xlink" width="200" height="200"><path d="M653.226667 99.84a170.666667 170.666667 0 0 1 147.712 85.162667l139.818666 241.493333a170.666667 170.666667 0 0 1 0 171.008l-139.818666 241.493333a170.666667 170.666667 0 0 1-147.712 85.162667H373.034667a170.666667 170.666667 0 0 1-147.712-85.162667l-139.776-241.493333a170.666667 170.666667 0 0 1 0-171.008l139.776-241.493333A170.666667 170.666667 0 0 1 373.034667 99.84z m0 85.333333H373.034667a85.333333 85.333333 0 0 0-73.813334 42.581334l-139.818666 241.493333a85.333333 85.333333 0 0 0 0 85.504l139.776 241.493333a85.333333 85.333333 0 0 0 73.856 42.581334h280.192a85.333333 85.333333 0 0 0 73.856-42.581334l139.818666-241.493333a85.333333 85.333333 0 0 0 0-85.504l-139.818666-241.493333a85.333333 85.333333 0 0 0-73.813334-42.581334zM513.152 341.333333a170.837333 170.837333 0 0 1 171.008 170.666667c0 94.293333-76.586667 170.666667-171.008 170.666667a170.837333 170.837333 0 0 1-171.008-170.666667c0-94.293333 76.586667-170.666667 171.008-170.666667z m0 85.333334c-47.36 0-85.674667 38.229333-85.674667 85.333333s38.314667 85.333333 85.674667 85.333333c47.36 0 85.674667-38.229333 85.674667-85.333333s-38.357333-85.333333-85.674667-85.333333z" fill="#0a66c2" p-id="22916"></path></svg>